<?xml version="1.0" encoding="UTF-8"?><svg id="Layer_1" xmlns="http://www.w3.org/2000/svg" xmlns:xlink="http://www.w3.org/1999/xlink" viewBox="0 0 1000 1000"><defs><style>.cls-1{fill:#fdfdfe;}.cls-2{fill:url(#linear-gradient);}</style><linearGradient id="linear-gradient" x1="32.06" y1="967.94" x2="967.94" y2="32.06" gradientUnits="userSpaceOnUse"><stop offset="0" stop-color="#1379fb"/><stop offset="1" stop-color="#1379fb"/></linearGradient></defs><rect class="cls-2" width="1000" height="1000" rx="109.45" ry="109.45"/><path class="cls-1" d="M349.08,411.79c0,55.07-.12,107.87.03,160.68.22,80.84.55,161.67,1.08,242.5.04,6.06-1.18,8.15-7.66,8.1-42.23-.3-84.47-.28-126.71-.05-5.58.03-6.85-1.58-6.81-6.98,1.46-210.63-.9-421.25-1.27-631.87-.01-6.63,1.73-8.25,8.25-8.2,37.48.32,74.96.3,112.44.01,5.44-.04,8.61,1.78,11.69,5.93,57.69,77.79,115.48,155.51,173.27,233.23,39.63,53.29,79.3,106.54,118.94,159.82,4.07,5.47,8.03,11.03,12.92,17.76,0-22.72.08-43.79-.01-64.85-.48-114.68-.98-229.36-1.63-344.04-.03-4.94,1.53-6.03,6.13-6.02,44.75.14,89.51.24,134.26-.08,6.64-.05,6.22,3.25,6.23,7.7.3,117.48.66,234.96,1.01,352.44.28,92.3.48,184.61,1.02,276.91.04,7.15-1.27,9.33-8.92,9.25-41.11-.44-82.23-.31-123.35-.07-5.13.03-7.91-1.81-10.82-5.77-37.54-51.07-74.87-102.3-113.07-152.88-28.91-38.28-56.56-77.49-85.71-115.61-33.71-44.09-65.75-89.47-98.52-134.29-.48-.66-1-1.3-2.8-3.61Z"/></svg>